<svg xmlns="http://www.w3.org/2000/svg" xmlns:xlink="http://www.w3.org/1999/xlink" aria-hidden="true" focusable="false" width="1.15em" height="1em" style="-ms-transform: rotate(360deg); -webkit-transform: rotate(360deg); transform: rotate(360deg);" preserveAspectRatio="xMidYMid meet" viewBox="0 0 1024 896"><path d="M27 130q-4-4-7-9t-4-10.5T15 98q0-19 12-31t31-12h913q19 0 31 12t12 31t-12 31.5t-31 12.5H58q-19 0-31-12zm975 285q12 12 12 31t-12 31t-31 12H58q-19 0-31-12q-2-2-4-5t-3.5-6t-2.5-6t-1.5-6.5t-.5-7.5q0-19 12-31t31-12h913q19 0 31 12zm0 347q12 12 12 31t-12 31.5t-31 12.5H58q-19 0-31-12q-2-2-3.5-4.5l-3-5l-2.5-5l-2-5.5l-1-5.5V793q0-19 12-31t31-12h913q18 0 31 12z" fill="#626262"/><rect x="0" y="0" width="1024" height="896" fill="rgba(0, 0, 0, 0)" /></svg>